<?xml version="1.0" standalone="no"?>
<!DOCTYPE svg PUBLIC "-//W3C//DTD SVG 20010904//EN"
 "http://www.w3.org/TR/2001/REC-SVG-20010904/DTD/svg10.dtd">
<svg version="1.0" xmlns="http://www.w3.org/2000/svg"
 width="242.000000pt" height="242.000000pt" viewBox="0 0 242.000000 242.000000"
 preserveAspectRatio="xMidYMid meet">
<metadata>
Created by potrace 1.11, written by Peter Selinger 2001-2013
</metadata>
<g transform="translate(0.000000,242.000000) scale(0.100000,-0.100000)"
fill="#000000" stroke="none">
<path d="M813 2287 c-12 -17 -45 -57 -73 -87 -55 -59 -70 -58 -70 5 0 28 -6
24 -107 -80 -102 -104 -108 -108 -111 -82 -2 15 -5 27 -8 27 -3 0 -26 -11 -52
-24 -60 -31 -120 -93 -137 -142 -11 -33 -18 -40 -43 -42 -28 -3 -32 -7 -37
-45 -4 -23 -5 -47 -3 -52 1 -6 -8 -32 -21 -59 -20 -40 -25 -69 -29 -170 -4
-109 -3 -120 11 -108 13 12 17 6 27 -45 7 -32 18 -73 26 -92 13 -30 12 -36 -3
-53 -10 -11 -18 -41 -21 -76 -3 -51 1 -66 38 -139 48 -97 91 -136 142 -131 26
2 33 -1 36 -17 16 -101 26 -129 59 -166 43 -47 157 -120 236 -150 41 -16 56
-26 52 -36 -3 -8 -5 -26 -5 -40 0 -23 -3 -25 -35 -19 -23 5 -62 -1 -122 -19
-48 -14 -112 -28 -141 -32 -61 -7 -123 -46 -147 -93 -13 -25 -85 -242 -85
-256 0 -2 270 -4 600 -4 344 0 600 4 600 9 0 5 122 80 270 167 149 88 288 175
309 195 46 41 50 56 87 269 18 110 25 181 23 245 -5 116 16 182 74 234 25 23
56 69 84 126 l45 90 -6 98 c-7 113 -27 151 -95 181 -52 24 -72 12 -101 -61
-30 -76 -98 -173 -120 -173 -20 0 -30 19 -30 54 0 39 -37 76 -75 76 -39 0 -51
-22 -35 -64 5 -15 10 -63 10 -107 0 -64 5 -89 24 -127 l24 -48 -29 -11 c-28
-11 -29 -14 -29 -72 0 -47 -5 -68 -24 -95 -25 -37 -56 -152 -81 -300 -8 -49
-16 -90 -17 -91 -12 -11 -254 -143 -337 -185 l-104 -52 -80 25 c-44 14 -86 23
-93 20 -9 -3 -14 2 -14 16 0 14 8 23 28 27 108 26 213 133 308 314 26 50 29
63 28 152 0 57 -5 103 -12 111 -7 8 -9 16 -6 19 3 3 -2 48 -10 100 -15 90 -12
168 5 168 15 0 39 -44 39 -73 0 -39 19 -31 46 19 40 71 14 124 -61 124 -23 0
-24 3 -27 83 -2 45 1 85 6 89 14 10 -9 189 -29 229 -10 19 -25 43 -34 54 -9
11 -27 55 -39 98 -13 43 -29 93 -36 110 l-14 32 -1 -37 c-1 -20 -6 -49 -11
-64 l-11 -28 -22 32 c-12 18 -43 43 -68 55 -25 13 -73 45 -107 70 -50 39 -61
44 -64 30 -3 -13 -11 -5 -27 25 -22 42 -23 43 -42 26 -22 -20 -20 -21 -48 34
-12 23 -22 42 -24 42 -1 0 -12 -15 -24 -33z"/>
</g>
</svg>
